<mxfile host="Electron" agent="Mozilla/5.0 (Windows NT 10.0; Win64; x64) AppleWebKit/537.36 (KHTML, like Gecko) draw.io/21.2.1 Chrome/112.0.5615.87 Electron/24.1.2 Safari/537.36" modified="2025-09-03T23:15:03.065Z" version="21.2.1" etag="2Mn-kfR_9clLmIbBKHC4" type="device">
  <diagram name="PÃ¡gina-1" id="LfR1hwVw9W9deJp4ly_a">
    <mxGraphModel dx="1434" dy="844" grid="1" gridSize="10" guides="1" tooltips="1" connect="1" arrows="1" fold="1" page="1" pageScale="1" pageWidth="827" pageHeight="1169" math="0" shadow="0">
      <root>
        <mxCell id="0" />
        <mxCell id="1" parent="0" />
        <mxCell id="BPRIxgXjPqgxqExQSOau-2" value="Empleado&amp;nbsp;" style="rounded=0;whiteSpace=wrap;html=1;" parent="1" vertex="1">
          <mxGeometry x="232" y="150" width="120" height="60" as="geometry" />
        </mxCell>
        <mxCell id="BPRIxgXjPqgxqExQSOau-3" value="Supervisor" style="rounded=0;whiteSpace=wrap;html=1;" parent="1" vertex="1">
          <mxGeometry x="496" y="150" width="120" height="60" as="geometry" />
        </mxCell>
        <mxCell id="BPRIxgXjPqgxqExQSOau-4" value="" style="endArrow=classic;startArrow=classic;html=1;rounded=0;entryX=0;entryY=0.5;entryDx=0;entryDy=0;exitX=1;exitY=0.5;exitDx=0;exitDy=0;" parent="1" source="BPRIxgXjPqgxqExQSOau-2" target="BPRIxgXjPqgxqExQSOau-3" edge="1">
          <mxGeometry width="50" height="50" relative="1" as="geometry">
            <mxPoint x="402" y="200" as="sourcePoint" />
            <mxPoint x="452" y="150" as="targetPoint" />
          </mxGeometry>
        </mxCell>
        <mxCell id="BPRIxgXjPqgxqExQSOau-8" style="edgeStyle=orthogonalEdgeStyle;rounded=0;orthogonalLoop=1;jettySize=auto;html=1;exitX=0.5;exitY=0;exitDx=0;exitDy=0;entryX=0;entryY=0.5;entryDx=0;entryDy=0;" parent="1" source="BPRIxgXjPqgxqExQSOau-5" target="BPRIxgXjPqgxqExQSOau-7" edge="1">
          <mxGeometry relative="1" as="geometry" />
        </mxCell>
        <mxCell id="BPRIxgXjPqgxqExQSOau-26" style="edgeStyle=orthogonalEdgeStyle;rounded=0;orthogonalLoop=1;jettySize=auto;html=1;exitX=1;exitY=0.5;exitDx=0;exitDy=0;entryX=0;entryY=0.5;entryDx=0;entryDy=0;" parent="1" source="BPRIxgXjPqgxqExQSOau-5" target="BPRIxgXjPqgxqExQSOau-18" edge="1">
          <mxGeometry relative="1" as="geometry" />
        </mxCell>
        <mxCell id="BPRIxgXjPqgxqExQSOau-28" style="edgeStyle=orthogonalEdgeStyle;rounded=0;orthogonalLoop=1;jettySize=auto;html=1;exitX=0.5;exitY=1;exitDx=0;exitDy=0;entryX=0;entryY=0.5;entryDx=0;entryDy=0;" parent="1" source="BPRIxgXjPqgxqExQSOau-5" target="BPRIxgXjPqgxqExQSOau-23" edge="1">
          <mxGeometry relative="1" as="geometry" />
        </mxCell>
        <mxCell id="BPRIxgXjPqgxqExQSOau-32" style="edgeStyle=orthogonalEdgeStyle;rounded=0;orthogonalLoop=1;jettySize=auto;html=1;exitX=0.25;exitY=1;exitDx=0;exitDy=0;entryX=0;entryY=0.5;entryDx=0;entryDy=0;" parent="1" source="BPRIxgXjPqgxqExQSOau-5" target="BPRIxgXjPqgxqExQSOau-30" edge="1">
          <mxGeometry relative="1" as="geometry" />
        </mxCell>
        <mxCell id="BPRIxgXjPqgxqExQSOau-5" value="Empleado" style="rounded=0;whiteSpace=wrap;html=1;" parent="1" vertex="1">
          <mxGeometry x="130" y="470" width="120" height="60" as="geometry" />
        </mxCell>
        <mxCell id="ZZGU9W33nmPc4NqlNUNR-188" style="edgeStyle=orthogonalEdgeStyle;rounded=0;orthogonalLoop=1;jettySize=auto;html=1;exitX=0.5;exitY=1;exitDx=0;exitDy=0;entryX=0.5;entryY=0;entryDx=0;entryDy=0;" edge="1" parent="1" source="BPRIxgXjPqgxqExQSOau-7" target="BPRIxgXjPqgxqExQSOau-18">
          <mxGeometry relative="1" as="geometry" />
        </mxCell>
        <mxCell id="BPRIxgXjPqgxqExQSOau-7" value="ingresar" style="ellipse;whiteSpace=wrap;html=1;aspect=fixed;" parent="1" vertex="1">
          <mxGeometry x="374" y="350" width="80" height="80" as="geometry" />
        </mxCell>
        <mxCell id="BPRIxgXjPqgxqExQSOau-10" value="1" style="ellipse;whiteSpace=wrap;html=1;aspect=fixed;" parent="1" vertex="1">
          <mxGeometry x="404" y="360" width="20" height="20" as="geometry" />
        </mxCell>
        <mxCell id="BPRIxgXjPqgxqExQSOau-25" style="edgeStyle=orthogonalEdgeStyle;rounded=0;orthogonalLoop=1;jettySize=auto;html=1;exitX=0.5;exitY=1;exitDx=0;exitDy=0;entryX=0.5;entryY=0;entryDx=0;entryDy=0;" parent="1" source="BPRIxgXjPqgxqExQSOau-18" target="BPRIxgXjPqgxqExQSOau-23" edge="1">
          <mxGeometry relative="1" as="geometry" />
        </mxCell>
        <mxCell id="BPRIxgXjPqgxqExQSOau-18" value="Visualizar Muro" style="ellipse;whiteSpace=wrap;html=1;aspect=fixed;" parent="1" vertex="1">
          <mxGeometry x="374" y="480" width="80" height="80" as="geometry" />
        </mxCell>
        <mxCell id="BPRIxgXjPqgxqExQSOau-19" value="1" style="ellipse;whiteSpace=wrap;html=1;aspect=fixed;" parent="1" vertex="1">
          <mxGeometry x="404" y="490" width="20" height="20" as="geometry" />
        </mxCell>
        <mxCell id="BPRIxgXjPqgxqExQSOau-116" style="edgeStyle=orthogonalEdgeStyle;rounded=0;orthogonalLoop=1;jettySize=auto;html=1;exitX=0.5;exitY=1;exitDx=0;exitDy=0;entryX=0.5;entryY=0;entryDx=0;entryDy=0;" parent="1" source="BPRIxgXjPqgxqExQSOau-23" target="BPRIxgXjPqgxqExQSOau-113" edge="1">
          <mxGeometry relative="1" as="geometry" />
        </mxCell>
        <mxCell id="BPRIxgXjPqgxqExQSOau-23" value="Visualizar mensajes" style="ellipse;whiteSpace=wrap;html=1;aspect=fixed;" parent="1" vertex="1">
          <mxGeometry x="374" y="600" width="80" height="80" as="geometry" />
        </mxCell>
        <mxCell id="BPRIxgXjPqgxqExQSOau-24" value="1" style="ellipse;whiteSpace=wrap;html=1;aspect=fixed;" parent="1" vertex="1">
          <mxGeometry x="404" y="610" width="20" height="20" as="geometry" />
        </mxCell>
        <mxCell id="BPRIxgXjPqgxqExQSOau-42" style="edgeStyle=orthogonalEdgeStyle;rounded=0;orthogonalLoop=1;jettySize=auto;html=1;exitX=0;exitY=1;exitDx=0;exitDy=0;entryX=0;entryY=0.5;entryDx=0;entryDy=0;" parent="1" source="BPRIxgXjPqgxqExQSOau-30" target="BPRIxgXjPqgxqExQSOau-5" edge="1">
          <mxGeometry relative="1" as="geometry" />
        </mxCell>
        <mxCell id="BPRIxgXjPqgxqExQSOau-43" style="edgeStyle=orthogonalEdgeStyle;rounded=0;orthogonalLoop=1;jettySize=auto;html=1;exitX=1;exitY=1;exitDx=0;exitDy=0;entryX=1;entryY=0.5;entryDx=0;entryDy=0;" parent="1" source="BPRIxgXjPqgxqExQSOau-30" target="BPRIxgXjPqgxqExQSOau-37" edge="1">
          <mxGeometry relative="1" as="geometry" />
        </mxCell>
        <mxCell id="BPRIxgXjPqgxqExQSOau-30" value="Enviar&lt;div&gt;Mensaje&lt;/div&gt;" style="ellipse;whiteSpace=wrap;html=1;aspect=fixed;" parent="1" vertex="1">
          <mxGeometry x="383" y="800" width="80" height="80" as="geometry" />
        </mxCell>
        <mxCell id="BPRIxgXjPqgxqExQSOau-31" value="1" style="ellipse;whiteSpace=wrap;html=1;aspect=fixed;" parent="1" vertex="1">
          <mxGeometry x="414" y="800" width="20" height="20" as="geometry" />
        </mxCell>
        <mxCell id="BPRIxgXjPqgxqExQSOau-38" style="edgeStyle=orthogonalEdgeStyle;rounded=0;orthogonalLoop=1;jettySize=auto;html=1;exitX=0.5;exitY=0;exitDx=0;exitDy=0;entryX=1;entryY=0.5;entryDx=0;entryDy=0;" parent="1" source="BPRIxgXjPqgxqExQSOau-37" target="BPRIxgXjPqgxqExQSOau-7" edge="1">
          <mxGeometry relative="1" as="geometry" />
        </mxCell>
        <mxCell id="BPRIxgXjPqgxqExQSOau-39" style="edgeStyle=orthogonalEdgeStyle;rounded=0;orthogonalLoop=1;jettySize=auto;html=1;exitX=0;exitY=0.5;exitDx=0;exitDy=0;entryX=1;entryY=0.5;entryDx=0;entryDy=0;" parent="1" source="BPRIxgXjPqgxqExQSOau-37" target="BPRIxgXjPqgxqExQSOau-18" edge="1">
          <mxGeometry relative="1" as="geometry" />
        </mxCell>
        <mxCell id="BPRIxgXjPqgxqExQSOau-40" style="edgeStyle=orthogonalEdgeStyle;rounded=0;orthogonalLoop=1;jettySize=auto;html=1;exitX=0.5;exitY=1;exitDx=0;exitDy=0;entryX=1;entryY=0.5;entryDx=0;entryDy=0;" parent="1" source="BPRIxgXjPqgxqExQSOau-37" target="BPRIxgXjPqgxqExQSOau-23" edge="1">
          <mxGeometry relative="1" as="geometry" />
        </mxCell>
        <mxCell id="BPRIxgXjPqgxqExQSOau-41" style="edgeStyle=orthogonalEdgeStyle;rounded=0;orthogonalLoop=1;jettySize=auto;html=1;exitX=0.75;exitY=1;exitDx=0;exitDy=0;entryX=1;entryY=0.5;entryDx=0;entryDy=0;" parent="1" source="BPRIxgXjPqgxqExQSOau-37" target="BPRIxgXjPqgxqExQSOau-30" edge="1">
          <mxGeometry relative="1" as="geometry" />
        </mxCell>
        <mxCell id="BPRIxgXjPqgxqExQSOau-37" value="Supervisor" style="rounded=0;whiteSpace=wrap;html=1;" parent="1" vertex="1">
          <mxGeometry x="600" y="480" width="120" height="60" as="geometry" />
        </mxCell>
        <mxCell id="ZZGU9W33nmPc4NqlNUNR-96" style="edgeStyle=orthogonalEdgeStyle;rounded=0;orthogonalLoop=1;jettySize=auto;html=1;exitX=0.5;exitY=0;exitDx=0;exitDy=0;entryX=0.5;entryY=0;entryDx=0;entryDy=0;" edge="1" parent="1" source="BPRIxgXjPqgxqExQSOau-50" target="ZZGU9W33nmPc4NqlNUNR-82">
          <mxGeometry relative="1" as="geometry" />
        </mxCell>
        <mxCell id="ZZGU9W33nmPc4NqlNUNR-125" style="edgeStyle=orthogonalEdgeStyle;rounded=0;orthogonalLoop=1;jettySize=auto;html=1;exitX=0.75;exitY=0;exitDx=0;exitDy=0;" edge="1" parent="1" source="BPRIxgXjPqgxqExQSOau-50" target="ZZGU9W33nmPc4NqlNUNR-79">
          <mxGeometry relative="1" as="geometry" />
        </mxCell>
        <mxCell id="BPRIxgXjPqgxqExQSOau-50" value="Empleado" style="rounded=0;whiteSpace=wrap;html=1;" parent="1" vertex="1">
          <mxGeometry x="139.95" y="1130" width="120" height="60" as="geometry" />
        </mxCell>
        <mxCell id="ZZGU9W33nmPc4NqlNUNR-127" style="edgeStyle=orthogonalEdgeStyle;rounded=0;orthogonalLoop=1;jettySize=auto;html=1;exitX=0;exitY=1;exitDx=0;exitDy=0;entryX=0.5;entryY=0;entryDx=0;entryDy=0;" edge="1" parent="1" source="BPRIxgXjPqgxqExQSOau-55" target="ZZGU9W33nmPc4NqlNUNR-110">
          <mxGeometry relative="1" as="geometry" />
        </mxCell>
        <mxCell id="ZZGU9W33nmPc4NqlNUNR-128" style="edgeStyle=orthogonalEdgeStyle;rounded=0;orthogonalLoop=1;jettySize=auto;html=1;exitX=0.5;exitY=1;exitDx=0;exitDy=0;entryX=0.5;entryY=0;entryDx=0;entryDy=0;" edge="1" parent="1" source="BPRIxgXjPqgxqExQSOau-55" target="BPRIxgXjPqgxqExQSOau-71">
          <mxGeometry relative="1" as="geometry" />
        </mxCell>
        <mxCell id="ZZGU9W33nmPc4NqlNUNR-149" style="edgeStyle=orthogonalEdgeStyle;rounded=0;orthogonalLoop=1;jettySize=auto;html=1;exitX=1;exitY=0.5;exitDx=0;exitDy=0;entryX=0;entryY=0.5;entryDx=0;entryDy=0;" edge="1" parent="1" source="BPRIxgXjPqgxqExQSOau-55" target="ZZGU9W33nmPc4NqlNUNR-147">
          <mxGeometry relative="1" as="geometry">
            <Array as="points">
              <mxPoint x="540" y="1190" />
              <mxPoint x="540" y="1240" />
            </Array>
          </mxGeometry>
        </mxCell>
        <mxCell id="BPRIxgXjPqgxqExQSOau-55" value="Visualizar Muro" style="ellipse;whiteSpace=wrap;html=1;aspect=fixed;" parent="1" vertex="1">
          <mxGeometry x="373" y="1150" width="80" height="80" as="geometry" />
        </mxCell>
        <mxCell id="BPRIxgXjPqgxqExQSOau-56" value="1" style="ellipse;whiteSpace=wrap;html=1;aspect=fixed;" parent="1" vertex="1">
          <mxGeometry x="403.05" y="1150" width="20" height="20" as="geometry" />
        </mxCell>
        <mxCell id="ZZGU9W33nmPc4NqlNUNR-88" style="edgeStyle=orthogonalEdgeStyle;rounded=0;orthogonalLoop=1;jettySize=auto;html=1;exitX=0;exitY=0.5;exitDx=0;exitDy=0;entryX=1;entryY=0.5;entryDx=0;entryDy=0;" edge="1" parent="1" source="BPRIxgXjPqgxqExQSOau-67" target="ZZGU9W33nmPc4NqlNUNR-81">
          <mxGeometry relative="1" as="geometry" />
        </mxCell>
        <mxCell id="ZZGU9W33nmPc4NqlNUNR-89" style="edgeStyle=orthogonalEdgeStyle;rounded=0;orthogonalLoop=1;jettySize=auto;html=1;exitX=0.5;exitY=0;exitDx=0;exitDy=0;entryX=0.5;entryY=0;entryDx=0;entryDy=0;" edge="1" parent="1" source="BPRIxgXjPqgxqExQSOau-67" target="ZZGU9W33nmPc4NqlNUNR-80">
          <mxGeometry relative="1" as="geometry" />
        </mxCell>
        <mxCell id="ZZGU9W33nmPc4NqlNUNR-136" style="edgeStyle=orthogonalEdgeStyle;rounded=0;orthogonalLoop=1;jettySize=auto;html=1;exitX=1;exitY=0.5;exitDx=0;exitDy=0;entryX=1;entryY=0.5;entryDx=0;entryDy=0;" edge="1" parent="1" source="BPRIxgXjPqgxqExQSOau-67" target="ZZGU9W33nmPc4NqlNUNR-59">
          <mxGeometry relative="1" as="geometry">
            <Array as="points">
              <mxPoint x="1050" y="1060" />
              <mxPoint x="1050" y="1460" />
            </Array>
          </mxGeometry>
        </mxCell>
        <mxCell id="BPRIxgXjPqgxqExQSOau-67" value="Supervisor" style="rounded=0;whiteSpace=wrap;html=1;" parent="1" vertex="1">
          <mxGeometry x="609.95" y="1030" width="120" height="60" as="geometry" />
        </mxCell>
        <mxCell id="ZZGU9W33nmPc4NqlNUNR-141" style="edgeStyle=orthogonalEdgeStyle;rounded=0;orthogonalLoop=1;jettySize=auto;html=1;exitX=1;exitY=0.5;exitDx=0;exitDy=0;entryX=0.533;entryY=0.006;entryDx=0;entryDy=0;entryPerimeter=0;" edge="1" parent="1" source="BPRIxgXjPqgxqExQSOau-70" target="ZZGU9W33nmPc4NqlNUNR-56">
          <mxGeometry relative="1" as="geometry" />
        </mxCell>
        <mxCell id="BPRIxgXjPqgxqExQSOau-70" value="crear post" style="ellipse;whiteSpace=wrap;html=1;aspect=fixed;" parent="1" vertex="1">
          <mxGeometry x="373" y="1250" width="80" height="80" as="geometry" />
        </mxCell>
        <mxCell id="BPRIxgXjPqgxqExQSOau-71" value="2" style="ellipse;whiteSpace=wrap;html=1;aspect=fixed;" parent="1" vertex="1">
          <mxGeometry x="403" y="1250" width="20" height="20" as="geometry" />
        </mxCell>
        <mxCell id="BPRIxgXjPqgxqExQSOau-117" style="edgeStyle=orthogonalEdgeStyle;rounded=0;orthogonalLoop=1;jettySize=auto;html=1;exitX=0.5;exitY=1;exitDx=0;exitDy=0;entryX=0.5;entryY=0;entryDx=0;entryDy=0;" parent="1" source="BPRIxgXjPqgxqExQSOau-112" target="BPRIxgXjPqgxqExQSOau-31" edge="1">
          <mxGeometry relative="1" as="geometry" />
        </mxCell>
        <mxCell id="BPRIxgXjPqgxqExQSOau-112" value="Acceder al chat" style="ellipse;whiteSpace=wrap;html=1;aspect=fixed;" parent="1" vertex="1">
          <mxGeometry x="374" y="700" width="80" height="80" as="geometry" />
        </mxCell>
        <mxCell id="BPRIxgXjPqgxqExQSOau-113" value="1" style="ellipse;whiteSpace=wrap;html=1;aspect=fixed;" parent="1" vertex="1">
          <mxGeometry x="403" y="700" width="20" height="20" as="geometry" />
        </mxCell>
        <mxCell id="BPRIxgXjPqgxqExQSOau-118" style="edgeStyle=orthogonalEdgeStyle;rounded=0;orthogonalLoop=1;jettySize=auto;html=1;exitX=0;exitY=0.5;exitDx=0;exitDy=0;entryX=0.375;entryY=1.075;entryDx=0;entryDy=0;entryPerimeter=0;" parent="1" source="BPRIxgXjPqgxqExQSOau-112" target="BPRIxgXjPqgxqExQSOau-5" edge="1">
          <mxGeometry relative="1" as="geometry" />
        </mxCell>
        <mxCell id="BPRIxgXjPqgxqExQSOau-119" style="edgeStyle=orthogonalEdgeStyle;rounded=0;orthogonalLoop=1;jettySize=auto;html=1;exitX=1;exitY=0.5;exitDx=0;exitDy=0;entryX=0.615;entryY=1.075;entryDx=0;entryDy=0;entryPerimeter=0;" parent="1" source="BPRIxgXjPqgxqExQSOau-112" target="BPRIxgXjPqgxqExQSOau-37" edge="1">
          <mxGeometry relative="1" as="geometry" />
        </mxCell>
        <mxCell id="ZZGU9W33nmPc4NqlNUNR-9" value="" style="endArrow=none;html=1;rounded=0;" edge="1" parent="1">
          <mxGeometry width="50" height="50" relative="1" as="geometry">
            <mxPoint x="484.38" y="1089.9999999999998" as="sourcePoint" />
            <mxPoint x="544.38" y="1089.9999999999998" as="targetPoint" />
          </mxGeometry>
        </mxCell>
        <mxCell id="ZZGU9W33nmPc4NqlNUNR-10" value="" style="endArrow=none;html=1;rounded=0;exitX=0.14;exitY=1.063;exitDx=0;exitDy=0;exitPerimeter=0;entryX=0.881;entryY=1.072;entryDx=0;entryDy=0;entryPerimeter=0;" edge="1" parent="1">
          <mxGeometry width="50" height="50" relative="1" as="geometry">
            <mxPoint x="485.86" y="1121.82" as="sourcePoint" />
            <mxPoint x="544.86" y="1121.82" as="targetPoint" />
            <Array as="points">
              <mxPoint x="484.86" y="1121.82" />
            </Array>
          </mxGeometry>
        </mxCell>
        <mxCell id="ZZGU9W33nmPc4NqlNUNR-92" style="edgeStyle=orthogonalEdgeStyle;rounded=0;orthogonalLoop=1;jettySize=auto;html=1;entryX=1;entryY=0.5;entryDx=0;entryDy=0;" edge="1" parent="1" source="ZZGU9W33nmPc4NqlNUNR-11" target="ZZGU9W33nmPc4NqlNUNR-79">
          <mxGeometry relative="1" as="geometry" />
        </mxCell>
        <mxCell id="ZZGU9W33nmPc4NqlNUNR-11" value="usuario" style="text;html=1;align=center;verticalAlign=middle;resizable=0;points=[];autosize=1;strokeColor=none;fillColor=none;" vertex="1" parent="1">
          <mxGeometry x="483.43" y="1085" width="60" height="30" as="geometry" />
        </mxCell>
        <mxCell id="ZZGU9W33nmPc4NqlNUNR-54" value="" style="endArrow=none;html=1;rounded=0;" edge="1" parent="1">
          <mxGeometry width="50" height="50" relative="1" as="geometry">
            <mxPoint x="463" y="1310" as="sourcePoint" />
            <mxPoint x="523.0000000000001" y="1310" as="targetPoint" />
          </mxGeometry>
        </mxCell>
        <mxCell id="ZZGU9W33nmPc4NqlNUNR-55" value="" style="endArrow=none;html=1;rounded=0;exitX=0.14;exitY=1.063;exitDx=0;exitDy=0;exitPerimeter=0;entryX=0.881;entryY=1.072;entryDx=0;entryDy=0;entryPerimeter=0;" edge="1" parent="1">
          <mxGeometry width="50" height="50" relative="1" as="geometry">
            <mxPoint x="464.48" y="1341.82" as="sourcePoint" />
            <mxPoint x="523.4800000000001" y="1341.82" as="targetPoint" />
            <Array as="points">
              <mxPoint x="463.48" y="1341.82" />
            </Array>
          </mxGeometry>
        </mxCell>
        <mxCell id="ZZGU9W33nmPc4NqlNUNR-171" style="edgeStyle=orthogonalEdgeStyle;rounded=0;orthogonalLoop=1;jettySize=auto;html=1;entryX=1;entryY=1;entryDx=0;entryDy=0;" edge="1" parent="1" source="ZZGU9W33nmPc4NqlNUNR-56" target="BPRIxgXjPqgxqExQSOau-55">
          <mxGeometry relative="1" as="geometry">
            <Array as="points">
              <mxPoint x="530" y="1328" />
              <mxPoint x="530" y="1240" />
              <mxPoint x="441" y="1240" />
            </Array>
          </mxGeometry>
        </mxCell>
        <mxCell id="ZZGU9W33nmPc4NqlNUNR-56" value="post" style="text;html=1;align=center;verticalAlign=middle;resizable=0;points=[];autosize=1;strokeColor=none;fillColor=none;" vertex="1" parent="1">
          <mxGeometry x="464" y="1312.82" width="50" height="30" as="geometry" />
        </mxCell>
        <mxCell id="ZZGU9W33nmPc4NqlNUNR-172" style="edgeStyle=orthogonalEdgeStyle;rounded=0;orthogonalLoop=1;jettySize=auto;html=1;exitX=1;exitY=1;exitDx=0;exitDy=0;entryX=1.005;entryY=0.517;entryDx=0;entryDy=0;entryPerimeter=0;" edge="1" parent="1" source="ZZGU9W33nmPc4NqlNUNR-59" target="ZZGU9W33nmPc4NqlNUNR-63">
          <mxGeometry relative="1" as="geometry">
            <Array as="points">
              <mxPoint x="480" y="1488" />
              <mxPoint x="480" y="1538" />
            </Array>
          </mxGeometry>
        </mxCell>
        <mxCell id="ZZGU9W33nmPc4NqlNUNR-59" value="crear encuesta" style="ellipse;whiteSpace=wrap;html=1;aspect=fixed;" vertex="1" parent="1">
          <mxGeometry x="383.00000000000006" y="1420" width="80" height="80" as="geometry" />
        </mxCell>
        <mxCell id="ZZGU9W33nmPc4NqlNUNR-60" value="2" style="ellipse;whiteSpace=wrap;html=1;aspect=fixed;" vertex="1" parent="1">
          <mxGeometry x="413.00000000000006" y="1420" width="20" height="20" as="geometry" />
        </mxCell>
        <mxCell id="ZZGU9W33nmPc4NqlNUNR-61" value="" style="endArrow=none;html=1;rounded=0;" edge="1" parent="1">
          <mxGeometry width="50" height="50" relative="1" as="geometry">
            <mxPoint x="368.95000000000005" y="1520" as="sourcePoint" />
            <mxPoint x="428.95000000000005" y="1520" as="targetPoint" />
          </mxGeometry>
        </mxCell>
        <mxCell id="ZZGU9W33nmPc4NqlNUNR-62" value="" style="endArrow=none;html=1;rounded=0;exitX=0.14;exitY=1.063;exitDx=0;exitDy=0;exitPerimeter=0;entryX=0.881;entryY=1.072;entryDx=0;entryDy=0;entryPerimeter=0;" edge="1" parent="1">
          <mxGeometry width="50" height="50" relative="1" as="geometry">
            <mxPoint x="370.43000000000006" y="1551.82" as="sourcePoint" />
            <mxPoint x="429.43000000000006" y="1551.82" as="targetPoint" />
            <Array as="points">
              <mxPoint x="369.43000000000006" y="1551.82" />
            </Array>
          </mxGeometry>
        </mxCell>
        <mxCell id="ZZGU9W33nmPc4NqlNUNR-173" style="edgeStyle=orthogonalEdgeStyle;rounded=0;orthogonalLoop=1;jettySize=auto;html=1;entryX=1.008;entryY=0.696;entryDx=0;entryDy=0;entryPerimeter=0;" edge="1" parent="1" source="ZZGU9W33nmPc4NqlNUNR-63" target="ZZGU9W33nmPc4NqlNUNR-106">
          <mxGeometry relative="1" as="geometry">
            <Array as="points">
              <mxPoint x="398" y="1500" />
              <mxPoint x="332" y="1500" />
              <mxPoint x="332" y="1466" />
            </Array>
          </mxGeometry>
        </mxCell>
        <mxCell id="ZZGU9W33nmPc4NqlNUNR-63" value="encuesta" style="text;html=1;align=center;verticalAlign=middle;resizable=0;points=[];autosize=1;strokeColor=none;fillColor=none;" vertex="1" parent="1">
          <mxGeometry x="363" y="1522.82" width="70" height="30" as="geometry" />
        </mxCell>
        <mxCell id="ZZGU9W33nmPc4NqlNUNR-94" style="edgeStyle=orthogonalEdgeStyle;rounded=0;orthogonalLoop=1;jettySize=auto;html=1;exitX=0.5;exitY=1;exitDx=0;exitDy=0;entryX=0;entryY=0.5;entryDx=0;entryDy=0;" edge="1" parent="1" source="ZZGU9W33nmPc4NqlNUNR-79" target="BPRIxgXjPqgxqExQSOau-55">
          <mxGeometry relative="1" as="geometry" />
        </mxCell>
        <mxCell id="ZZGU9W33nmPc4NqlNUNR-79" value="iniciar sesion" style="ellipse;whiteSpace=wrap;html=1;aspect=fixed;" vertex="1" parent="1">
          <mxGeometry x="286.00000000000006" y="1060" width="80" height="80" as="geometry" />
        </mxCell>
        <mxCell id="ZZGU9W33nmPc4NqlNUNR-80" value="2" style="ellipse;whiteSpace=wrap;html=1;aspect=fixed;" vertex="1" parent="1">
          <mxGeometry x="315.43000000000006" y="1060" width="20" height="20" as="geometry" />
        </mxCell>
        <mxCell id="ZZGU9W33nmPc4NqlNUNR-93" style="edgeStyle=orthogonalEdgeStyle;rounded=0;orthogonalLoop=1;jettySize=auto;html=1;exitX=1;exitY=1;exitDx=0;exitDy=0;entryX=0.526;entryY=0.056;entryDx=0;entryDy=0;entryPerimeter=0;" edge="1" parent="1" source="ZZGU9W33nmPc4NqlNUNR-81" target="ZZGU9W33nmPc4NqlNUNR-11">
          <mxGeometry relative="1" as="geometry" />
        </mxCell>
        <mxCell id="ZZGU9W33nmPc4NqlNUNR-81" value="registrarse" style="ellipse;whiteSpace=wrap;html=1;aspect=fixed;" vertex="1" parent="1">
          <mxGeometry x="434.00000000000006" y="1000" width="80" height="80" as="geometry" />
        </mxCell>
        <mxCell id="ZZGU9W33nmPc4NqlNUNR-82" value="2" style="ellipse;whiteSpace=wrap;html=1;aspect=fixed;" vertex="1" parent="1">
          <mxGeometry x="463.43000000000006" y="1000" width="20" height="20" as="geometry" />
        </mxCell>
        <mxCell id="ZZGU9W33nmPc4NqlNUNR-139" style="edgeStyle=orthogonalEdgeStyle;rounded=0;orthogonalLoop=1;jettySize=auto;html=1;" edge="1" parent="1" source="ZZGU9W33nmPc4NqlNUNR-106" target="ZZGU9W33nmPc4NqlNUNR-59">
          <mxGeometry relative="1" as="geometry" />
        </mxCell>
        <mxCell id="ZZGU9W33nmPc4NqlNUNR-176" style="edgeStyle=orthogonalEdgeStyle;rounded=0;orthogonalLoop=1;jettySize=auto;html=1;exitX=0.5;exitY=1;exitDx=0;exitDy=0;entryX=1;entryY=0;entryDx=0;entryDy=0;" edge="1" parent="1" source="ZZGU9W33nmPc4NqlNUNR-106" target="ZZGU9W33nmPc4NqlNUNR-174">
          <mxGeometry relative="1" as="geometry" />
        </mxCell>
        <mxCell id="ZZGU9W33nmPc4NqlNUNR-106" value="entrar&lt;br&gt;chat grupal" style="ellipse;whiteSpace=wrap;html=1;aspect=fixed;" vertex="1" parent="1">
          <mxGeometry x="220" y="1410" width="80" height="80" as="geometry" />
        </mxCell>
        <mxCell id="ZZGU9W33nmPc4NqlNUNR-107" value="2" style="ellipse;whiteSpace=wrap;html=1;aspect=fixed;" vertex="1" parent="1">
          <mxGeometry x="250.0000000000001" y="1410" width="20" height="20" as="geometry" />
        </mxCell>
        <mxCell id="ZZGU9W33nmPc4NqlNUNR-129" style="edgeStyle=orthogonalEdgeStyle;rounded=0;orthogonalLoop=1;jettySize=auto;html=1;exitX=0.5;exitY=1;exitDx=0;exitDy=0;entryX=0.5;entryY=0;entryDx=0;entryDy=0;" edge="1" parent="1" source="ZZGU9W33nmPc4NqlNUNR-109" target="ZZGU9W33nmPc4NqlNUNR-107">
          <mxGeometry relative="1" as="geometry" />
        </mxCell>
        <mxCell id="ZZGU9W33nmPc4NqlNUNR-132" style="edgeStyle=orthogonalEdgeStyle;rounded=0;orthogonalLoop=1;jettySize=auto;html=1;entryX=0.5;entryY=0;entryDx=0;entryDy=0;" edge="1" parent="1" source="ZZGU9W33nmPc4NqlNUNR-109" target="ZZGU9W33nmPc4NqlNUNR-131">
          <mxGeometry relative="1" as="geometry" />
        </mxCell>
        <mxCell id="ZZGU9W33nmPc4NqlNUNR-109" value="entrar chat" style="ellipse;whiteSpace=wrap;html=1;aspect=fixed;" vertex="1" parent="1">
          <mxGeometry x="220.00000000000006" y="1280" width="80" height="80" as="geometry" />
        </mxCell>
        <mxCell id="ZZGU9W33nmPc4NqlNUNR-110" value="2" style="ellipse;whiteSpace=wrap;html=1;aspect=fixed;" vertex="1" parent="1">
          <mxGeometry x="250.00000000000006" y="1280" width="20" height="20" as="geometry" />
        </mxCell>
        <mxCell id="ZZGU9W33nmPc4NqlNUNR-177" style="edgeStyle=orthogonalEdgeStyle;rounded=0;orthogonalLoop=1;jettySize=auto;html=1;exitX=0.5;exitY=1;exitDx=0;exitDy=0;entryX=0;entryY=0;entryDx=0;entryDy=0;" edge="1" parent="1" source="ZZGU9W33nmPc4NqlNUNR-130" target="ZZGU9W33nmPc4NqlNUNR-174">
          <mxGeometry relative="1" as="geometry" />
        </mxCell>
        <mxCell id="ZZGU9W33nmPc4NqlNUNR-130" value="acceder&lt;br&gt;chat individual" style="ellipse;whiteSpace=wrap;html=1;aspect=fixed;" vertex="1" parent="1">
          <mxGeometry x="110" y="1410" width="80" height="80" as="geometry" />
        </mxCell>
        <mxCell id="ZZGU9W33nmPc4NqlNUNR-131" value="2" style="ellipse;whiteSpace=wrap;html=1;aspect=fixed;" vertex="1" parent="1">
          <mxGeometry x="140.0000000000001" y="1410" width="20" height="20" as="geometry" />
        </mxCell>
        <mxCell id="ZZGU9W33nmPc4NqlNUNR-155" style="edgeStyle=orthogonalEdgeStyle;rounded=0;orthogonalLoop=1;jettySize=auto;html=1;exitX=1;exitY=0.5;exitDx=0;exitDy=0;entryX=0;entryY=0.5;entryDx=0;entryDy=0;" edge="1" parent="1" source="ZZGU9W33nmPc4NqlNUNR-147" target="ZZGU9W33nmPc4NqlNUNR-157">
          <mxGeometry relative="1" as="geometry">
            <Array as="points">
              <mxPoint x="630" y="1240" />
              <mxPoint x="735" y="1240" />
              <mxPoint x="735" y="1260" />
            </Array>
          </mxGeometry>
        </mxCell>
        <mxCell id="ZZGU9W33nmPc4NqlNUNR-156" style="edgeStyle=orthogonalEdgeStyle;rounded=0;orthogonalLoop=1;jettySize=auto;html=1;exitX=1;exitY=1;exitDx=0;exitDy=0;entryX=0;entryY=0.5;entryDx=0;entryDy=0;" edge="1" parent="1" source="ZZGU9W33nmPc4NqlNUNR-147" target="ZZGU9W33nmPc4NqlNUNR-153">
          <mxGeometry relative="1" as="geometry" />
        </mxCell>
        <mxCell id="ZZGU9W33nmPc4NqlNUNR-158" style="edgeStyle=orthogonalEdgeStyle;rounded=0;orthogonalLoop=1;jettySize=auto;html=1;exitX=1;exitY=0;exitDx=0;exitDy=0;entryX=0;entryY=0.5;entryDx=0;entryDy=0;" edge="1" parent="1" source="ZZGU9W33nmPc4NqlNUNR-147" target="ZZGU9W33nmPc4NqlNUNR-151">
          <mxGeometry relative="1" as="geometry" />
        </mxCell>
        <mxCell id="ZZGU9W33nmPc4NqlNUNR-147" value="acceder&lt;br&gt;post" style="ellipse;whiteSpace=wrap;html=1;aspect=fixed;" vertex="1" parent="1">
          <mxGeometry x="549.43" y="1200" width="80" height="80" as="geometry" />
        </mxCell>
        <mxCell id="ZZGU9W33nmPc4NqlNUNR-148" value="2" style="ellipse;whiteSpace=wrap;html=1;aspect=fixed;" vertex="1" parent="1">
          <mxGeometry x="579.15" y="1199.43" width="20.57" height="20.57" as="geometry" />
        </mxCell>
        <mxCell id="ZZGU9W33nmPc4NqlNUNR-168" style="edgeStyle=orthogonalEdgeStyle;rounded=0;orthogonalLoop=1;jettySize=auto;html=1;exitX=1;exitY=0.5;exitDx=0;exitDy=0;entryX=0.493;entryY=1.039;entryDx=0;entryDy=0;entryPerimeter=0;" edge="1" parent="1" source="ZZGU9W33nmPc4NqlNUNR-151" target="ZZGU9W33nmPc4NqlNUNR-167">
          <mxGeometry relative="1" as="geometry" />
        </mxCell>
        <mxCell id="ZZGU9W33nmPc4NqlNUNR-151" value="valorar" style="ellipse;whiteSpace=wrap;html=1;aspect=fixed;" vertex="1" parent="1">
          <mxGeometry x="745.43" y="1130" width="80" height="80" as="geometry" />
        </mxCell>
        <mxCell id="ZZGU9W33nmPc4NqlNUNR-152" value="2" style="ellipse;whiteSpace=wrap;html=1;aspect=fixed;" vertex="1" parent="1">
          <mxGeometry x="774.86" y="1130" width="20" height="20" as="geometry" />
        </mxCell>
        <mxCell id="ZZGU9W33nmPc4NqlNUNR-163" style="edgeStyle=orthogonalEdgeStyle;rounded=0;orthogonalLoop=1;jettySize=auto;html=1;exitX=1;exitY=0.5;exitDx=0;exitDy=0;entryX=-0.03;entryY=0.423;entryDx=0;entryDy=0;entryPerimeter=0;" edge="1" parent="1" source="ZZGU9W33nmPc4NqlNUNR-153" target="ZZGU9W33nmPc4NqlNUNR-161">
          <mxGeometry relative="1" as="geometry">
            <Array as="points">
              <mxPoint x="827" y="1358" />
            </Array>
          </mxGeometry>
        </mxCell>
        <mxCell id="ZZGU9W33nmPc4NqlNUNR-153" value="comentar" style="ellipse;whiteSpace=wrap;html=1;aspect=fixed;" vertex="1" parent="1">
          <mxGeometry x="747" y="1312.82" width="80" height="80" as="geometry" />
        </mxCell>
        <mxCell id="ZZGU9W33nmPc4NqlNUNR-154" value="2" style="ellipse;whiteSpace=wrap;html=1;aspect=fixed;" vertex="1" parent="1">
          <mxGeometry x="776.4300000000001" y="1312.82" width="20" height="20" as="geometry" />
        </mxCell>
        <mxCell id="ZZGU9W33nmPc4NqlNUNR-157" value="ver&lt;br&gt;comentarios" style="ellipse;whiteSpace=wrap;html=1;aspect=fixed;" vertex="1" parent="1">
          <mxGeometry x="840" y="1220" width="80" height="80" as="geometry" />
        </mxCell>
        <mxCell id="ZZGU9W33nmPc4NqlNUNR-159" value="" style="endArrow=none;html=1;rounded=0;" edge="1" parent="1">
          <mxGeometry width="50" height="50" relative="1" as="geometry">
            <mxPoint x="905.9500000000002" y="1342.82" as="sourcePoint" />
            <mxPoint x="965.9500000000002" y="1342.82" as="targetPoint" />
          </mxGeometry>
        </mxCell>
        <mxCell id="ZZGU9W33nmPc4NqlNUNR-160" value="" style="endArrow=none;html=1;rounded=0;exitX=0.14;exitY=1.063;exitDx=0;exitDy=0;exitPerimeter=0;entryX=0.881;entryY=1.072;entryDx=0;entryDy=0;entryPerimeter=0;" edge="1" parent="1">
          <mxGeometry width="50" height="50" relative="1" as="geometry">
            <mxPoint x="907.4300000000002" y="1374.6399999999999" as="sourcePoint" />
            <mxPoint x="966.4300000000002" y="1374.6399999999999" as="targetPoint" />
            <Array as="points">
              <mxPoint x="906.4300000000002" y="1374.6399999999999" />
            </Array>
          </mxGeometry>
        </mxCell>
        <mxCell id="ZZGU9W33nmPc4NqlNUNR-164" style="edgeStyle=orthogonalEdgeStyle;rounded=0;orthogonalLoop=1;jettySize=auto;html=1;entryX=1;entryY=0.5;entryDx=0;entryDy=0;" edge="1" parent="1" source="ZZGU9W33nmPc4NqlNUNR-161" target="ZZGU9W33nmPc4NqlNUNR-157">
          <mxGeometry relative="1" as="geometry">
            <Array as="points">
              <mxPoint x="935" y="1323" />
              <mxPoint x="960" y="1323" />
              <mxPoint x="960" y="1260" />
            </Array>
          </mxGeometry>
        </mxCell>
        <mxCell id="ZZGU9W33nmPc4NqlNUNR-161" value="comentarios" style="text;html=1;align=center;verticalAlign=middle;resizable=0;points=[];autosize=1;strokeColor=none;fillColor=none;" vertex="1" parent="1">
          <mxGeometry x="890.0000000000001" y="1345.6399999999999" width="90" height="30" as="geometry" />
        </mxCell>
        <mxCell id="ZZGU9W33nmPc4NqlNUNR-162" value="2" style="ellipse;whiteSpace=wrap;html=1;aspect=fixed;" vertex="1" parent="1">
          <mxGeometry x="870" y="1220" width="20" height="20" as="geometry" />
        </mxCell>
        <mxCell id="ZZGU9W33nmPc4NqlNUNR-165" value="" style="endArrow=none;html=1;rounded=0;" edge="1" parent="1">
          <mxGeometry width="50" height="50" relative="1" as="geometry">
            <mxPoint x="880.9500000000002" y="1097" as="sourcePoint" />
            <mxPoint x="940.9500000000002" y="1097" as="targetPoint" />
          </mxGeometry>
        </mxCell>
        <mxCell id="ZZGU9W33nmPc4NqlNUNR-166" value="" style="endArrow=none;html=1;rounded=0;exitX=0.14;exitY=1.063;exitDx=0;exitDy=0;exitPerimeter=0;entryX=0.881;entryY=1.072;entryDx=0;entryDy=0;entryPerimeter=0;" edge="1" parent="1">
          <mxGeometry width="50" height="50" relative="1" as="geometry">
            <mxPoint x="882.4300000000002" y="1128.82" as="sourcePoint" />
            <mxPoint x="941.4300000000002" y="1128.82" as="targetPoint" />
            <Array as="points">
              <mxPoint x="881.4300000000002" y="1128.82" />
            </Array>
          </mxGeometry>
        </mxCell>
        <mxCell id="ZZGU9W33nmPc4NqlNUNR-169" style="edgeStyle=orthogonalEdgeStyle;rounded=0;orthogonalLoop=1;jettySize=auto;html=1;entryX=0.5;entryY=0;entryDx=0;entryDy=0;" edge="1" parent="1" source="ZZGU9W33nmPc4NqlNUNR-167" target="ZZGU9W33nmPc4NqlNUNR-147">
          <mxGeometry relative="1" as="geometry">
            <Array as="points">
              <mxPoint x="590" y="1120" />
            </Array>
          </mxGeometry>
        </mxCell>
        <mxCell id="ZZGU9W33nmPc4NqlNUNR-167" value="valoraciones" style="text;html=1;align=center;verticalAlign=middle;resizable=0;points=[];autosize=1;strokeColor=none;fillColor=none;" vertex="1" parent="1">
          <mxGeometry x="865.0000000000001" y="1099.82" width="90" height="30" as="geometry" />
        </mxCell>
        <mxCell id="ZZGU9W33nmPc4NqlNUNR-183" style="edgeStyle=orthogonalEdgeStyle;rounded=0;orthogonalLoop=1;jettySize=auto;html=1;exitX=0.5;exitY=1;exitDx=0;exitDy=0;" edge="1" parent="1" source="ZZGU9W33nmPc4NqlNUNR-174">
          <mxGeometry relative="1" as="geometry">
            <mxPoint x="200" y="1680" as="targetPoint" />
          </mxGeometry>
        </mxCell>
        <mxCell id="ZZGU9W33nmPc4NqlNUNR-174" value="enviar&lt;br&gt;mensaje" style="ellipse;whiteSpace=wrap;html=1;aspect=fixed;" vertex="1" parent="1">
          <mxGeometry x="159.95000000000007" y="1560" width="80" height="80" as="geometry" />
        </mxCell>
        <mxCell id="ZZGU9W33nmPc4NqlNUNR-175" value="1" style="ellipse;whiteSpace=wrap;html=1;aspect=fixed;" vertex="1" parent="1">
          <mxGeometry x="189.95000000000007" y="1560" width="20" height="20" as="geometry" />
        </mxCell>
        <mxCell id="ZZGU9W33nmPc4NqlNUNR-178" value="" style="endArrow=none;html=1;rounded=0;" edge="1" parent="1">
          <mxGeometry width="50" height="50" relative="1" as="geometry">
            <mxPoint x="167.95000000000016" y="1680" as="sourcePoint" />
            <mxPoint x="227.95000000000016" y="1680" as="targetPoint" />
          </mxGeometry>
        </mxCell>
        <mxCell id="ZZGU9W33nmPc4NqlNUNR-179" value="" style="endArrow=none;html=1;rounded=0;exitX=0.14;exitY=1.063;exitDx=0;exitDy=0;exitPerimeter=0;entryX=0.881;entryY=1.072;entryDx=0;entryDy=0;entryPerimeter=0;" edge="1" parent="1">
          <mxGeometry width="50" height="50" relative="1" as="geometry">
            <mxPoint x="169.43000000000018" y="1711.82" as="sourcePoint" />
            <mxPoint x="228.43000000000018" y="1711.82" as="targetPoint" />
            <Array as="points">
              <mxPoint x="168.43000000000018" y="1711.82" />
            </Array>
          </mxGeometry>
        </mxCell>
        <mxCell id="ZZGU9W33nmPc4NqlNUNR-184" style="edgeStyle=orthogonalEdgeStyle;rounded=0;orthogonalLoop=1;jettySize=auto;html=1;entryX=1;entryY=1;entryDx=0;entryDy=0;" edge="1" parent="1" source="ZZGU9W33nmPc4NqlNUNR-180" target="ZZGU9W33nmPc4NqlNUNR-106">
          <mxGeometry relative="1" as="geometry">
            <Array as="points">
              <mxPoint x="288" y="1698" />
            </Array>
          </mxGeometry>
        </mxCell>
        <mxCell id="ZZGU9W33nmPc4NqlNUNR-185" style="edgeStyle=orthogonalEdgeStyle;rounded=0;orthogonalLoop=1;jettySize=auto;html=1;entryX=0;entryY=1;entryDx=0;entryDy=0;" edge="1" parent="1" source="ZZGU9W33nmPc4NqlNUNR-180" target="ZZGU9W33nmPc4NqlNUNR-130">
          <mxGeometry relative="1" as="geometry">
            <Array as="points">
              <mxPoint x="122" y="1698" />
            </Array>
          </mxGeometry>
        </mxCell>
        <mxCell id="ZZGU9W33nmPc4NqlNUNR-180" value="mensajes" style="text;html=1;align=center;verticalAlign=middle;resizable=0;points=[];autosize=1;strokeColor=none;fillColor=none;" vertex="1" parent="1">
          <mxGeometry x="162.0000000000001" y="1682.82" width="70" height="30" as="geometry" />
        </mxCell>
      </root>
    </mxGraphModel>
  </diagram>
</mxfile>
